<svg xmlns="http://www.w3.org/2000/svg" viewBox="0 0 256 256" role="img" aria-label="Cipher Workspace icon">
  <defs>
    <linearGradient id="tile" x1="30" y1="18" x2="228" y2="238" gradientUnits="userSpaceOnUse">
      <stop offset="0%" stop-color="#112548" />
      <stop offset="54%" stop-color="#09152c" />
      <stop offset="100%" stop-color="#050b18" />
    </linearGradient>
    <radialGradient id="highlight" cx="74" cy="58" r="154" gradientUnits="userSpaceOnUse">
      <stop offset="0%" stop-color="#66c8ff" stop-opacity="0.3" />
      <stop offset="44%" stop-color="#10284d" stop-opacity="0.08" />
      <stop offset="100%" stop-color="#081122" stop-opacity="0" />
    </radialGradient>
    <linearGradient id="mark" x1="68" y1="58" x2="190" y2="192" gradientUnits="userSpaceOnUse">
      <stop offset="0%" stop-color="#7ff8db" />
      <stop offset="54%" stop-color="#32d5ff" />
      <stop offset="100%" stop-color="#4d6bff" />
    </linearGradient>
    <linearGradient id="glyph" x1="108" y1="96" x2="166" y2="158" gradientUnits="userSpaceOnUse">
      <stop offset="0%" stop-color="#dcfffb" />
      <stop offset="100%" stop-color="#8fd0ff" />
    </linearGradient>
    <filter id="softGlow" x="-20%" y="-20%" width="140%" height="140%">
      <feGaussianBlur stdDeviation="4.5" result="blur" />
      <feMerge>
        <feMergeNode in="blur" />
        <feMergeNode in="SourceGraphic" />
      </feMerge>
    </filter>
  </defs>

  <rect x="10" y="10" width="236" height="236" rx="56" fill="url(#tile)" />
  <rect x="10" y="10" width="236" height="236" rx="56" fill="url(#highlight)" />
  <rect x="10.5" y="10.5" width="235" height="235" rx="55.5" fill="none" stroke="rgba(168,216,255,0.2)" />

  <path
    d="M179 72C163 57 141 49 117 53C82 58 57 88 57 128C57 168 82 198 117 203C140 207 162 199 179 184"
    fill="none"
    stroke="url(#mark)"
    stroke-width="28"
    stroke-linecap="round"
    filter="url(#softGlow)"
  />

  <path
    d="M116 102L145 128L116 154"
    fill="none"
    stroke="url(#glyph)"
    stroke-width="12"
    stroke-linecap="round"
    stroke-linejoin="round"
    filter="url(#softGlow)"
  />
  <path
    d="M122 173H154"
    fill="none"
    stroke="url(#glyph)"
    stroke-width="12"
    stroke-linecap="round"
    filter="url(#softGlow)"
  />
</svg>
